<mxfile host="app.diagrams.net" modified="2023-09-14T02:22:43.331Z" agent="Mozilla/5.0 (Macintosh; Intel Mac OS X 10_15_7) AppleWebKit/537.36 (KHTML, like Gecko) Chrome/116.0.0.0 Safari/537.36" etag="iH-Wd3N-49mpjXO1_dF7" version="21.6.8" type="github">
  <diagram id="R2lEEEUBdFMjLlhIrx00" name="Page-1">
    <mxGraphModel dx="1804" dy="551" grid="1" gridSize="10" guides="1" tooltips="1" connect="1" arrows="1" fold="1" page="1" pageScale="1" pageWidth="850" pageHeight="1100" math="0" shadow="0" extFonts="Permanent Marker^https://fonts.googleapis.com/css?family=Permanent+Marker">
      <root>
        <mxCell id="0" />
        <mxCell id="1" parent="0" />
        <mxCell id="ljNqTBHzjzzW8Y34iLLb-36" value="&lt;div&gt;&lt;br&gt;&lt;/div&gt;&lt;div&gt;&lt;br&gt;&lt;/div&gt;&lt;div&gt;&lt;br&gt;&lt;/div&gt;&lt;div&gt;&lt;br&gt;&lt;/div&gt;&lt;div&gt;&lt;br&gt;&lt;/div&gt;&lt;div&gt;&lt;br&gt;&lt;/div&gt;&lt;div&gt;&lt;br&gt;&lt;/div&gt;&lt;div&gt;&lt;br&gt;&lt;/div&gt;&lt;div&gt;&lt;br&gt;&lt;/div&gt;&lt;div&gt;&lt;br&gt;&lt;/div&gt;&lt;div&gt;&lt;br&gt;&lt;/div&gt;&lt;div&gt;&lt;br&gt;&lt;/div&gt;&lt;div&gt;&lt;br&gt;&lt;/div&gt;&lt;div&gt;&lt;br&gt;&lt;/div&gt;" style="text;html=1;strokeColor=none;fillColor=none;align=center;verticalAlign=middle;whiteSpace=wrap;rounded=0;" parent="1" vertex="1">
          <mxGeometry x="10" y="170" width="60" height="30" as="geometry" />
        </mxCell>
        <mxCell id="ljNqTBHzjzzW8Y34iLLb-44" value="" style="edgeStyle=orthogonalEdgeStyle;rounded=0;orthogonalLoop=1;jettySize=auto;html=1;" parent="1" source="ljNqTBHzjzzW8Y34iLLb-42" target="ljNqTBHzjzzW8Y34iLLb-43" edge="1">
          <mxGeometry relative="1" as="geometry" />
        </mxCell>
        <mxCell id="ljNqTBHzjzzW8Y34iLLb-45" value="1:n" style="edgeLabel;html=1;align=center;verticalAlign=middle;resizable=0;points=[];" parent="ljNqTBHzjzzW8Y34iLLb-44" vertex="1" connectable="0">
          <mxGeometry x="-0.25" y="1" relative="1" as="geometry">
            <mxPoint as="offset" />
          </mxGeometry>
        </mxCell>
        <mxCell id="ljNqTBHzjzzW8Y34iLLb-47" value="" style="edgeStyle=orthogonalEdgeStyle;rounded=0;orthogonalLoop=1;jettySize=auto;html=1;" parent="1" source="ljNqTBHzjzzW8Y34iLLb-42" target="ljNqTBHzjzzW8Y34iLLb-46" edge="1">
          <mxGeometry relative="1" as="geometry" />
        </mxCell>
        <mxCell id="ljNqTBHzjzzW8Y34iLLb-48" value="1:n" style="edgeLabel;html=1;align=center;verticalAlign=middle;resizable=0;points=[];" parent="ljNqTBHzjzzW8Y34iLLb-47" vertex="1" connectable="0">
          <mxGeometry x="-0.025" relative="1" as="geometry">
            <mxPoint as="offset" />
          </mxGeometry>
        </mxCell>
        <mxCell id="ljNqTBHzjzzW8Y34iLLb-50" value="" style="edgeStyle=orthogonalEdgeStyle;rounded=0;orthogonalLoop=1;jettySize=auto;html=1;" parent="1" source="ljNqTBHzjzzW8Y34iLLb-42" target="ljNqTBHzjzzW8Y34iLLb-49" edge="1">
          <mxGeometry relative="1" as="geometry" />
        </mxCell>
        <mxCell id="ljNqTBHzjzzW8Y34iLLb-52" value="1:n" style="edgeLabel;html=1;align=center;verticalAlign=middle;resizable=0;points=[];" parent="ljNqTBHzjzzW8Y34iLLb-50" vertex="1" connectable="0">
          <mxGeometry x="-0.1333" y="-1" relative="1" as="geometry">
            <mxPoint as="offset" />
          </mxGeometry>
        </mxCell>
        <mxCell id="ljNqTBHzjzzW8Y34iLLb-55" value="" style="edgeStyle=orthogonalEdgeStyle;rounded=0;orthogonalLoop=1;jettySize=auto;html=1;" parent="1" source="ljNqTBHzjzzW8Y34iLLb-42" target="ljNqTBHzjzzW8Y34iLLb-54" edge="1">
          <mxGeometry relative="1" as="geometry" />
        </mxCell>
        <mxCell id="ljNqTBHzjzzW8Y34iLLb-56" value="1:1" style="edgeLabel;html=1;align=center;verticalAlign=middle;resizable=0;points=[];" parent="ljNqTBHzjzzW8Y34iLLb-55" vertex="1" connectable="0">
          <mxGeometry x="0.0235" y="-2" relative="1" as="geometry">
            <mxPoint as="offset" />
          </mxGeometry>
        </mxCell>
        <mxCell id="ljNqTBHzjzzW8Y34iLLb-59" value="" style="edgeStyle=orthogonalEdgeStyle;rounded=0;orthogonalLoop=1;jettySize=auto;html=1;" parent="1" source="ljNqTBHzjzzW8Y34iLLb-42" target="ljNqTBHzjzzW8Y34iLLb-58" edge="1">
          <mxGeometry relative="1" as="geometry" />
        </mxCell>
        <mxCell id="ljNqTBHzjzzW8Y34iLLb-61" value="" style="edgeStyle=orthogonalEdgeStyle;rounded=0;orthogonalLoop=1;jettySize=auto;html=1;" parent="1" source="ljNqTBHzjzzW8Y34iLLb-42" target="ljNqTBHzjzzW8Y34iLLb-43" edge="1">
          <mxGeometry relative="1" as="geometry" />
        </mxCell>
        <mxCell id="ljNqTBHzjzzW8Y34iLLb-62" value="" style="edgeStyle=orthogonalEdgeStyle;rounded=0;orthogonalLoop=1;jettySize=auto;html=1;" parent="1" source="ljNqTBHzjzzW8Y34iLLb-42" target="ljNqTBHzjzzW8Y34iLLb-43" edge="1">
          <mxGeometry relative="1" as="geometry" />
        </mxCell>
        <mxCell id="ljNqTBHzjzzW8Y34iLLb-65" style="rounded=0;orthogonalLoop=1;jettySize=auto;html=1;entryX=0;entryY=0.5;entryDx=0;entryDy=0;" parent="1" source="ljNqTBHzjzzW8Y34iLLb-42" target="ljNqTBHzjzzW8Y34iLLb-64" edge="1">
          <mxGeometry relative="1" as="geometry" />
        </mxCell>
        <mxCell id="ljNqTBHzjzzW8Y34iLLb-66" value="1:n" style="edgeLabel;html=1;align=center;verticalAlign=middle;resizable=0;points=[];" parent="ljNqTBHzjzzW8Y34iLLb-65" vertex="1" connectable="0">
          <mxGeometry x="-0.0801" relative="1" as="geometry">
            <mxPoint as="offset" />
          </mxGeometry>
        </mxCell>
        <mxCell id="ljNqTBHzjzzW8Y34iLLb-127" style="rounded=0;orthogonalLoop=1;jettySize=auto;html=1;entryX=0.5;entryY=0;entryDx=0;entryDy=0;" parent="1" source="ljNqTBHzjzzW8Y34iLLb-42" target="ljNqTBHzjzzW8Y34iLLb-125" edge="1">
          <mxGeometry relative="1" as="geometry" />
        </mxCell>
        <mxCell id="ljNqTBHzjzzW8Y34iLLb-128" value="n:1" style="edgeLabel;html=1;align=center;verticalAlign=middle;resizable=0;points=[];" parent="ljNqTBHzjzzW8Y34iLLb-127" vertex="1" connectable="0">
          <mxGeometry x="-0.0526" y="-1" relative="1" as="geometry">
            <mxPoint y="-1" as="offset" />
          </mxGeometry>
        </mxCell>
        <mxCell id="ljNqTBHzjzzW8Y34iLLb-42" value="商品表" style="rounded=0;whiteSpace=wrap;html=1;" parent="1" vertex="1">
          <mxGeometry x="250" y="180" width="70" height="30" as="geometry" />
        </mxCell>
        <mxCell id="ljNqTBHzjzzW8Y34iLLb-43" value="商品属性表" style="rounded=0;whiteSpace=wrap;html=1;" parent="1" vertex="1">
          <mxGeometry x="250" y="270" width="70" height="40" as="geometry" />
        </mxCell>
        <mxCell id="ljNqTBHzjzzW8Y34iLLb-46" value="商品规格表" style="rounded=0;whiteSpace=wrap;html=1;" parent="1" vertex="1">
          <mxGeometry x="400" y="180" width="70" height="30" as="geometry" />
        </mxCell>
        <mxCell id="ljNqTBHzjzzW8Y34iLLb-49" value="货品表" style="rounded=0;whiteSpace=wrap;html=1;" parent="1" vertex="1">
          <mxGeometry x="250" y="90" width="70" height="30" as="geometry" />
        </mxCell>
        <mxCell id="ljNqTBHzjzzW8Y34iLLb-51" value="具体单价、规格、库存数、货品url" style="text;html=1;strokeColor=none;fillColor=none;align=center;verticalAlign=middle;whiteSpace=wrap;rounded=0;" parent="1" vertex="1">
          <mxGeometry x="200" y="50" width="200" height="30" as="geometry" />
        </mxCell>
        <mxCell id="ljNqTBHzjzzW8Y34iLLb-53" value="展示最低价格、商品详情、是否上架" style="text;html=1;strokeColor=none;fillColor=none;align=center;verticalAlign=middle;whiteSpace=wrap;rounded=0;" parent="1" vertex="1">
          <mxGeometry x="310" y="140" width="140" height="30" as="geometry" />
        </mxCell>
        <mxCell id="ljNqTBHzjzzW8Y34iLLb-54" value="品牌表" style="rounded=0;whiteSpace=wrap;html=1;" parent="1" vertex="1">
          <mxGeometry x="100" y="110" width="70" height="30" as="geometry" />
        </mxCell>
        <mxCell id="ljNqTBHzjzzW8Y34iLLb-58" value="类目表" style="rounded=0;whiteSpace=wrap;html=1;" parent="1" vertex="1">
          <mxGeometry x="100" y="250" width="70" height="30" as="geometry" />
        </mxCell>
        <mxCell id="ljNqTBHzjzzW8Y34iLLb-60" value="商品域" style="text;html=1;strokeColor=none;fillColor=none;align=center;verticalAlign=middle;whiteSpace=wrap;rounded=0;" parent="1" vertex="1">
          <mxGeometry x="100" y="20" width="60" height="30" as="geometry" />
        </mxCell>
        <mxCell id="ljNqTBHzjzzW8Y34iLLb-64" value="商品评论表" style="rounded=0;whiteSpace=wrap;html=1;" parent="1" vertex="1">
          <mxGeometry x="410" y="275" width="70" height="30" as="geometry" />
        </mxCell>
        <mxCell id="ljNqTBHzjzzW8Y34iLLb-67" value="订单id/用户id" style="text;html=1;strokeColor=none;fillColor=none;align=center;verticalAlign=middle;whiteSpace=wrap;rounded=0;" parent="1" vertex="1">
          <mxGeometry x="510" y="280" width="90" height="30" as="geometry" />
        </mxCell>
        <mxCell id="ljNqTBHzjzzW8Y34iLLb-68" value="商品收藏表" style="rounded=0;whiteSpace=wrap;html=1;" parent="1" vertex="1">
          <mxGeometry x="425" y="1090" width="70" height="30" as="geometry" />
        </mxCell>
        <mxCell id="ljNqTBHzjzzW8Y34iLLb-71" value="订单域" style="text;html=1;strokeColor=none;fillColor=none;align=center;verticalAlign=middle;whiteSpace=wrap;rounded=0;" parent="1" vertex="1">
          <mxGeometry x="90" y="430" width="60" height="30" as="geometry" />
        </mxCell>
        <mxCell id="ljNqTBHzjzzW8Y34iLLb-72" value="购物车商品" style="rounded=0;whiteSpace=wrap;html=1;" parent="1" vertex="1">
          <mxGeometry x="290" y="470" width="70" height="40" as="geometry" />
        </mxCell>
        <mxCell id="ljNqTBHzjzzW8Y34iLLb-73" value="用户id/商品id/货品id/件数/价格/是否勾选&lt;br&gt;下单时需要再次校验" style="text;html=1;strokeColor=none;fillColor=none;align=center;verticalAlign=middle;whiteSpace=wrap;rounded=0;" parent="1" vertex="1">
          <mxGeometry x="425" y="475" width="195" height="30" as="geometry" />
        </mxCell>
        <mxCell id="ljNqTBHzjzzW8Y34iLLb-74" value="营销域" style="text;html=1;strokeColor=none;fillColor=none;align=center;verticalAlign=middle;whiteSpace=wrap;rounded=0;" parent="1" vertex="1">
          <mxGeometry x="80" y="800" width="60" height="30" as="geometry" />
        </mxCell>
        <mxCell id="ljNqTBHzjzzW8Y34iLLb-75" value="广告表" style="rounded=0;whiteSpace=wrap;html=1;" parent="1" vertex="1">
          <mxGeometry x="310" y="800" width="70" height="40" as="geometry" />
        </mxCell>
        <mxCell id="ljNqTBHzjzzW8Y34iLLb-76" value="位置（首页）/开始时间/结束时间" style="text;html=1;strokeColor=none;fillColor=none;align=center;verticalAlign=middle;whiteSpace=wrap;rounded=0;" parent="1" vertex="1">
          <mxGeometry x="430" y="830" width="195" height="30" as="geometry" />
        </mxCell>
        <mxCell id="ljNqTBHzjzzW8Y34iLLb-77" value="用户域" style="text;html=1;strokeColor=none;fillColor=none;align=center;verticalAlign=middle;whiteSpace=wrap;rounded=0;" parent="1" vertex="1">
          <mxGeometry x="80" y="980" width="60" height="30" as="geometry" />
        </mxCell>
        <mxCell id="ljNqTBHzjzzW8Y34iLLb-80" value="" style="edgeStyle=orthogonalEdgeStyle;rounded=0;orthogonalLoop=1;jettySize=auto;html=1;" parent="1" source="ljNqTBHzjzzW8Y34iLLb-78" target="ljNqTBHzjzzW8Y34iLLb-79" edge="1">
          <mxGeometry relative="1" as="geometry" />
        </mxCell>
        <mxCell id="ljNqTBHzjzzW8Y34iLLb-81" value="1:n" style="edgeLabel;html=1;align=center;verticalAlign=middle;resizable=0;points=[];" parent="ljNqTBHzjzzW8Y34iLLb-80" vertex="1" connectable="0">
          <mxGeometry x="-0.125" y="-3" relative="1" as="geometry">
            <mxPoint as="offset" />
          </mxGeometry>
        </mxCell>
        <mxCell id="ljNqTBHzjzzW8Y34iLLb-95" value="" style="edgeStyle=orthogonalEdgeStyle;rounded=0;orthogonalLoop=1;jettySize=auto;html=1;" parent="1" source="ljNqTBHzjzzW8Y34iLLb-78" target="ljNqTBHzjzzW8Y34iLLb-94" edge="1">
          <mxGeometry relative="1" as="geometry" />
        </mxCell>
        <mxCell id="ljNqTBHzjzzW8Y34iLLb-97" value="1:n" style="edgeLabel;html=1;align=center;verticalAlign=middle;resizable=0;points=[];" parent="ljNqTBHzjzzW8Y34iLLb-95" vertex="1" connectable="0">
          <mxGeometry x="-0.325" y="-1" relative="1" as="geometry">
            <mxPoint as="offset" />
          </mxGeometry>
        </mxCell>
        <mxCell id="ljNqTBHzjzzW8Y34iLLb-122" style="edgeStyle=orthogonalEdgeStyle;rounded=0;orthogonalLoop=1;jettySize=auto;html=1;entryX=0.5;entryY=0;entryDx=0;entryDy=0;" parent="1" source="ljNqTBHzjzzW8Y34iLLb-78" target="ljNqTBHzjzzW8Y34iLLb-121" edge="1">
          <mxGeometry relative="1" as="geometry" />
        </mxCell>
        <mxCell id="ljNqTBHzjzzW8Y34iLLb-123" value="1:n" style="edgeLabel;html=1;align=center;verticalAlign=middle;resizable=0;points=[];" parent="ljNqTBHzjzzW8Y34iLLb-122" vertex="1" connectable="0">
          <mxGeometry x="0.4537" relative="1" as="geometry">
            <mxPoint as="offset" />
          </mxGeometry>
        </mxCell>
        <mxCell id="ljNqTBHzjzzW8Y34iLLb-126" style="rounded=0;orthogonalLoop=1;jettySize=auto;html=1;" parent="1" source="ljNqTBHzjzzW8Y34iLLb-78" target="ljNqTBHzjzzW8Y34iLLb-68" edge="1">
          <mxGeometry relative="1" as="geometry" />
        </mxCell>
        <mxCell id="ljNqTBHzjzzW8Y34iLLb-78" value="用户表" style="rounded=0;whiteSpace=wrap;html=1;" parent="1" vertex="1">
          <mxGeometry x="310" y="1000" width="70" height="40" as="geometry" />
        </mxCell>
        <mxCell id="ljNqTBHzjzzW8Y34iLLb-79" value="地址表" style="rounded=0;whiteSpace=wrap;html=1;" parent="1" vertex="1">
          <mxGeometry x="460" y="1000" width="70" height="40" as="geometry" />
        </mxCell>
        <mxCell id="ljNqTBHzjzzW8Y34iLLb-82" value="省市区/详细地址/是否默认地址" style="text;html=1;strokeColor=none;fillColor=none;align=center;verticalAlign=middle;whiteSpace=wrap;rounded=0;" parent="1" vertex="1">
          <mxGeometry x="550" y="1010" width="180" height="30" as="geometry" />
        </mxCell>
        <mxCell id="ljNqTBHzjzzW8Y34iLLb-119" style="edgeStyle=orthogonalEdgeStyle;rounded=0;orthogonalLoop=1;jettySize=auto;html=1;" parent="1" source="ljNqTBHzjzzW8Y34iLLb-83" target="ljNqTBHzjzzW8Y34iLLb-116" edge="1">
          <mxGeometry relative="1" as="geometry" />
        </mxCell>
        <mxCell id="ljNqTBHzjzzW8Y34iLLb-120" value="1:n" style="edgeLabel;html=1;align=center;verticalAlign=middle;resizable=0;points=[];" parent="ljNqTBHzjzzW8Y34iLLb-119" vertex="1" connectable="0">
          <mxGeometry x="-0.0943" y="1" relative="1" as="geometry">
            <mxPoint as="offset" />
          </mxGeometry>
        </mxCell>
        <mxCell id="ljNqTBHzjzzW8Y34iLLb-83" value="商家表" style="rounded=0;whiteSpace=wrap;html=1;" parent="1" vertex="1">
          <mxGeometry x="310" y="1417" width="70" height="40" as="geometry" />
        </mxCell>
        <mxCell id="ljNqTBHzjzzW8Y34iLLb-84" value="商家域/店铺域" style="text;html=1;strokeColor=none;fillColor=none;align=center;verticalAlign=middle;whiteSpace=wrap;rounded=0;" parent="1" vertex="1">
          <mxGeometry x="75" y="1367" width="90" height="30" as="geometry" />
        </mxCell>
        <mxCell id="ljNqTBHzjzzW8Y34iLLb-85" value="用户名/密码/头像/角色id列表，这里应该单独存人和角色的关联关系" style="text;html=1;strokeColor=none;fillColor=none;align=center;verticalAlign=middle;whiteSpace=wrap;rounded=0;" parent="1" vertex="1">
          <mxGeometry x="420" y="1427" width="220" height="30" as="geometry" />
        </mxCell>
        <mxCell id="ljNqTBHzjzzW8Y34iLLb-86" value="售后表" style="rounded=0;whiteSpace=wrap;html=1;" parent="1" vertex="1">
          <mxGeometry x="290" y="600" width="70" height="40" as="geometry" />
        </mxCell>
        <mxCell id="ljNqTBHzjzzW8Y34iLLb-87" value="用户id/订单id/退款类型/退款状态/售后状态，只支持整体退" style="text;html=1;strokeColor=none;fillColor=none;align=center;verticalAlign=middle;whiteSpace=wrap;rounded=0;" parent="1" vertex="1">
          <mxGeometry x="420" y="605" width="195" height="30" as="geometry" />
        </mxCell>
        <mxCell id="ljNqTBHzjzzW8Y34iLLb-90" style="edgeStyle=orthogonalEdgeStyle;rounded=0;orthogonalLoop=1;jettySize=auto;html=1;entryX=0;entryY=0.5;entryDx=0;entryDy=0;" parent="1" source="ljNqTBHzjzzW8Y34iLLb-88" target="ljNqTBHzjzzW8Y34iLLb-89" edge="1">
          <mxGeometry relative="1" as="geometry" />
        </mxCell>
        <mxCell id="ljNqTBHzjzzW8Y34iLLb-91" value="1:n" style="edgeLabel;html=1;align=center;verticalAlign=middle;resizable=0;points=[];" parent="ljNqTBHzjzzW8Y34iLLb-90" vertex="1" connectable="0">
          <mxGeometry x="-0.14" relative="1" as="geometry">
            <mxPoint as="offset" />
          </mxGeometry>
        </mxCell>
        <mxCell id="ljNqTBHzjzzW8Y34iLLb-88" value="优惠券池子" style="rounded=0;whiteSpace=wrap;html=1;" parent="1" vertex="1">
          <mxGeometry x="310" y="880" width="70" height="40" as="geometry" />
        </mxCell>
        <mxCell id="ljNqTBHzjzzW8Y34iLLb-89" value="用户领域优惠券表" style="rounded=0;whiteSpace=wrap;html=1;" parent="1" vertex="1">
          <mxGeometry x="480" y="880" width="110" height="40" as="geometry" />
        </mxCell>
        <mxCell id="ljNqTBHzjzzW8Y34iLLb-92" value="订单id/使用状态/领取类型/有效期" style="text;html=1;strokeColor=none;fillColor=none;align=center;verticalAlign=middle;whiteSpace=wrap;rounded=0;" parent="1" vertex="1">
          <mxGeometry x="620" y="885" width="190" height="30" as="geometry" />
        </mxCell>
        <mxCell id="ljNqTBHzjzzW8Y34iLLb-93" value="券类型，券规则，使用门槛" style="text;html=1;strokeColor=none;fillColor=none;align=center;verticalAlign=middle;whiteSpace=wrap;rounded=0;" parent="1" vertex="1">
          <mxGeometry x="265" y="930" width="165" height="30" as="geometry" />
        </mxCell>
        <mxCell id="ljNqTBHzjzzW8Y34iLLb-94" value="用户浏览足迹表" style="rounded=0;whiteSpace=wrap;html=1;" parent="1" vertex="1">
          <mxGeometry x="310" y="1120" width="70" height="40" as="geometry" />
        </mxCell>
        <mxCell id="ljNqTBHzjzzW8Y34iLLb-96" value="用户id/商品id" style="text;html=1;strokeColor=none;fillColor=none;align=center;verticalAlign=middle;whiteSpace=wrap;rounded=0;" parent="1" vertex="1">
          <mxGeometry x="400" y="1130" width="180" height="30" as="geometry" />
        </mxCell>
        <mxCell id="ljNqTBHzjzzW8Y34iLLb-100" value="" style="edgeStyle=orthogonalEdgeStyle;rounded=0;orthogonalLoop=1;jettySize=auto;html=1;" parent="1" source="ljNqTBHzjzzW8Y34iLLb-98" target="ljNqTBHzjzzW8Y34iLLb-99" edge="1">
          <mxGeometry relative="1" as="geometry" />
        </mxCell>
        <mxCell id="ljNqTBHzjzzW8Y34iLLb-101" value="1:n" style="edgeLabel;html=1;align=center;verticalAlign=middle;resizable=0;points=[];" parent="ljNqTBHzjzzW8Y34iLLb-100" vertex="1" connectable="0">
          <mxGeometry x="-0.2" y="-4" relative="1" as="geometry">
            <mxPoint as="offset" />
          </mxGeometry>
        </mxCell>
        <mxCell id="ljNqTBHzjzzW8Y34iLLb-98" value="团购规则表" style="rounded=0;whiteSpace=wrap;html=1;" parent="1" vertex="1">
          <mxGeometry x="310" y="1220" width="70" height="40" as="geometry" />
        </mxCell>
        <mxCell id="ljNqTBHzjzzW8Y34iLLb-99" value="团购开团表" style="rounded=0;whiteSpace=wrap;html=1;" parent="1" vertex="1">
          <mxGeometry x="460" y="1220" width="70" height="40" as="geometry" />
        </mxCell>
        <mxCell id="ljNqTBHzjzzW8Y34iLLb-102" value="团长、成员、订单id&lt;br&gt;grouponId=0表示开团，!=0表示参团" style="text;html=1;strokeColor=none;fillColor=none;align=center;verticalAlign=middle;whiteSpace=wrap;rounded=0;" parent="1" vertex="1">
          <mxGeometry x="590" y="1230" width="110" height="30" as="geometry" />
        </mxCell>
        <mxCell id="ljNqTBHzjzzW8Y34iLLb-103" value="团购最低人数、优惠金额" style="text;html=1;strokeColor=none;fillColor=none;align=center;verticalAlign=middle;whiteSpace=wrap;rounded=0;" parent="1" vertex="1">
          <mxGeometry x="292.5" y="1290" width="110" height="30" as="geometry" />
        </mxCell>
        <mxCell id="ljNqTBHzjzzW8Y34iLLb-104" value="订单操作日志表" style="rounded=0;whiteSpace=wrap;html=1;" parent="1" vertex="1">
          <mxGeometry x="272.5" y="690" width="107.5" height="40" as="geometry" />
        </mxCell>
        <mxCell id="ljNqTBHzjzzW8Y34iLLb-105" value="商家通知表" style="rounded=0;whiteSpace=wrap;html=1;" parent="1" vertex="1">
          <mxGeometry x="310" y="1615" width="70" height="40" as="geometry" />
        </mxCell>
        <mxCell id="ljNqTBHzjzzW8Y34iLLb-106" value="通知标题、通知内容" style="text;html=1;strokeColor=none;fillColor=none;align=center;verticalAlign=middle;whiteSpace=wrap;rounded=0;" parent="1" vertex="1">
          <mxGeometry x="425" y="1620" width="160" height="30" as="geometry" />
        </mxCell>
        <mxCell id="ljNqTBHzjzzW8Y34iLLb-110" style="edgeStyle=orthogonalEdgeStyle;rounded=0;orthogonalLoop=1;jettySize=auto;html=1;" parent="1" source="ljNqTBHzjzzW8Y34iLLb-107" target="ljNqTBHzjzzW8Y34iLLb-109" edge="1">
          <mxGeometry relative="1" as="geometry" />
        </mxCell>
        <mxCell id="ljNqTBHzjzzW8Y34iLLb-111" value="1:n" style="edgeLabel;html=1;align=center;verticalAlign=middle;resizable=0;points=[];" parent="ljNqTBHzjzzW8Y34iLLb-110" vertex="1" connectable="0">
          <mxGeometry x="-0.2" relative="1" as="geometry">
            <mxPoint as="offset" />
          </mxGeometry>
        </mxCell>
        <mxCell id="ljNqTBHzjzzW8Y34iLLb-113" style="edgeStyle=orthogonalEdgeStyle;rounded=0;orthogonalLoop=1;jettySize=auto;html=1;entryX=0;entryY=0.5;entryDx=0;entryDy=0;" parent="1" source="ljNqTBHzjzzW8Y34iLLb-107" target="ljNqTBHzjzzW8Y34iLLb-86" edge="1">
          <mxGeometry relative="1" as="geometry">
            <Array as="points">
              <mxPoint x="180" y="620" />
            </Array>
          </mxGeometry>
        </mxCell>
        <mxCell id="ljNqTBHzjzzW8Y34iLLb-114" value="1:n?" style="edgeLabel;html=1;align=center;verticalAlign=middle;resizable=0;points=[];" parent="ljNqTBHzjzzW8Y34iLLb-113" vertex="1" connectable="0">
          <mxGeometry x="0.2258" y="-1" relative="1" as="geometry">
            <mxPoint as="offset" />
          </mxGeometry>
        </mxCell>
        <mxCell id="ljNqTBHzjzzW8Y34iLLb-107" value="订单表" style="rounded=0;whiteSpace=wrap;html=1;" parent="1" vertex="1">
          <mxGeometry x="140" y="535" width="70" height="40" as="geometry" />
        </mxCell>
        <mxCell id="ljNqTBHzjzzW8Y34iLLb-108" value="订单状态/售后状态/支付金额/收货人地址/手机/待评价商品数量/微信支付编号" style="text;html=1;strokeColor=none;fillColor=none;align=center;verticalAlign=middle;whiteSpace=wrap;rounded=0;" parent="1" vertex="1">
          <mxGeometry x="-110" y="535" width="210" height="30" as="geometry" />
        </mxCell>
        <mxCell id="ljNqTBHzjzzW8Y34iLLb-109" value="订单商品表" style="rounded=0;whiteSpace=wrap;html=1;" parent="1" vertex="1">
          <mxGeometry x="292.5" y="535" width="70" height="40" as="geometry" />
        </mxCell>
        <mxCell id="ljNqTBHzjzzW8Y34iLLb-112" value="商品id/货品id/规格/图片url，评论" style="text;html=1;strokeColor=none;fillColor=none;align=center;verticalAlign=middle;whiteSpace=wrap;rounded=0;" parent="1" vertex="1">
          <mxGeometry x="440" y="540" width="170" height="30" as="geometry" />
        </mxCell>
        <mxCell id="ljNqTBHzjzzW8Y34iLLb-118" value="1:n" style="edgeStyle=orthogonalEdgeStyle;rounded=0;orthogonalLoop=1;jettySize=auto;html=1;" parent="1" source="ljNqTBHzjzzW8Y34iLLb-116" target="ljNqTBHzjzzW8Y34iLLb-117" edge="1">
          <mxGeometry relative="1" as="geometry" />
        </mxCell>
        <mxCell id="ljNqTBHzjzzW8Y34iLLb-116" value="角色表" style="rounded=0;whiteSpace=wrap;html=1;" parent="1" vertex="1">
          <mxGeometry x="310" y="1510" width="70" height="40" as="geometry" />
        </mxCell>
        <mxCell id="ljNqTBHzjzzW8Y34iLLb-117" value="权限表" style="rounded=0;whiteSpace=wrap;html=1;" parent="1" vertex="1">
          <mxGeometry x="460" y="1510" width="70" height="40" as="geometry" />
        </mxCell>
        <mxCell id="ljNqTBHzjzzW8Y34iLLb-121" value="用户搜索历史" style="rounded=0;whiteSpace=wrap;html=1;" parent="1" vertex="1">
          <mxGeometry x="170" y="1120" width="70" height="40" as="geometry" />
        </mxCell>
        <mxCell id="ljNqTBHzjzzW8Y34iLLb-124" value="用户id&lt;br&gt;关键字" style="text;html=1;strokeColor=none;fillColor=none;align=center;verticalAlign=middle;whiteSpace=wrap;rounded=0;" parent="1" vertex="1">
          <mxGeometry x="80" y="1100" width="60" height="30" as="geometry" />
        </mxCell>
        <mxCell id="ljNqTBHzjzzW8Y34iLLb-125" value="专题表" style="rounded=0;whiteSpace=wrap;html=1;" parent="1" vertex="1">
          <mxGeometry x="140" y="305" width="70" height="30" as="geometry" />
        </mxCell>
        <mxCell id="ljNqTBHzjzzW8Y34iLLb-129" value="用户等级/手机号" style="text;html=1;strokeColor=none;fillColor=none;align=center;verticalAlign=middle;whiteSpace=wrap;rounded=0;" parent="1" vertex="1">
          <mxGeometry x="250" y="980" width="60" height="30" as="geometry" />
        </mxCell>
        <mxCell id="ljNqTBHzjzzW8Y34iLLb-130" value="管理后台，发货，上架商品、退款" style="text;html=1;strokeColor=none;fillColor=none;align=center;verticalAlign=middle;whiteSpace=wrap;rounded=0;" parent="1" vertex="1">
          <mxGeometry x="300" y="1367" width="210" height="30" as="geometry" />
        </mxCell>
      </root>
    </mxGraphModel>
  </diagram>
</mxfile>
